<?xml version="1.0" standalone="no"?><!DOCTYPE svg PUBLIC "-//W3C//DTD SVG 1.1//EN" "http://www.w3.org/Graphics/SVG/1.1/DTD/svg11.dtd"><svg t="1697614324330" class="icon" viewBox="0 0 1024 1024" version="1.1" xmlns="http://www.w3.org/2000/svg" p-id="1963" xmlns:xlink="http://www.w3.org/1999/xlink" width="200" height="200"><path d="M729.28 418.07m-208.35 0a208.35 208.35 0 1 0 416.7 0 208.35 208.35 0 1 0-416.7 0Z" fill="#E3EEFF" p-id="1964"></path><path d="M612.28 899.79c-38.56 0-78.13-10.19-109.59-26.33l-1.11-0.59-37.82-21.15C389.4 811 277.2 701.25 272.46 696.6l-1-1.05C253.29 676.84 208 627.43 169.32 563c-40.32-67.2-59.61-127.71-57.24-179.84 2.1-46.09 20.71-84.5 55.31-114.16 16.53-14.17 30-23.76 42.26-30.18 16.86-8.82 32.67-12.21 48.35-10.42 32.27 3.66 54.79 28.77 72.56 52.84l4.77 6.44c19.36 26.11 36.08 48.65 42.82 74.49 8 30.75-0.14 59.95-24.26 86.91-0.68 4.23-1.07 13.46 3.8 28.07 7.22 21.68 27 58.22 80.5 109.19 69.12 65.41 108.8 70.28 121.49 69.74a88.85 88.85 0 0 1 37.7-21.1c15.7-4.19 32.72-3.94 50.59 0.74 24.48 6.4 50.64 20.77 84.82 46.59 22.07 16.67 43 36.09 46.27 65.06 2.82 24.62-8.19 46.17-21.76 69.78v0.05c-19.67 34.12-41.74 49.85-50.68 55.21-26.31 19.25-59.92 27.37-94.34 27.38z m-77.11-88.34c45.11 22.92 103.7 24.69 130.88 3.87a20.86 20.86 0 0 1 4.86-3.15c2.36-1.51 14-9.68 25.73-29.94 9.61-16.74 12.34-23.73 12.78-26.61-1-1.65-4.82-6.88-18.82-17.45-16.47-12.44-40.64-29.58-60.35-34.74-13.63-3.56-19.68-0.22-26.08 7.2a35 35 0 0 1-10.43 8.22c-5.8 3-27.58 12.15-64.29 4-42.35-9.39-89.26-38.24-139.44-85.74l-0.09-0.08c-58-55.33-92.75-107.15-103.17-154-9.1-40.88 3-64.75 7-71.1a34.55 34.55 0 0 1 4.93-6.24c14.67-14.75 12.92-21.42 11.77-25.84-3.31-12.7-16.28-30.2-31.31-50.45-1.6-2.16-3.22-4.34-4.85-6.56-17.67-23.9-24.13-24.84-24.19-24.84-0.32-0.05-8.2-0.62-37.16 24.2C193.33 339 183.21 360 182 386.34c-1.71 37.59 14.65 86.21 47.32 140.61 36.1 60.1 79.77 106.91 92.58 120.1 7.52 7.33 111.82 108.44 175.6 143.34l0.28 0.15z m136.15 0.53zM354.53 446.36zM738.41 549.94h-70c0-107.29-87.29-194.58-194.58-194.58v-70a264.57 264.57 0 0 1 264.58 264.58z" fill="#333333" p-id="1965"></path><path d="M888 618.35l-69-11.69a346.28 346.28 0 0 0 4.84-57.73A342.94 342.94 0 0 0 480.89 206a345.68 345.68 0 0 0-71.46 7.45L394.92 145a415.7 415.7 0 0 1 86-9 412.63 412.63 0 0 1 412.91 412.93 416.77 416.77 0 0 1-5.83 69.42z" fill="#333333" p-id="1966"></path></svg>